<mxfile host="app.diagrams.net" modified="2025-08-31T00:00:00Z" agent="Mozilla/5.0 (Cursor Background Agent)" version="20.6.3" etag="data-flow-1">
  <diagram id="dataFlowDiagram" name="Data Flow">
    <mxGraphModel dx="1600" dy="900" grid="1" gridSize="10" guides="1" tooltips="1" connect="1" arrows="1" fold="1" page="1" pageScale="1" pageWidth="1920" pageHeight="1080" math="0" shadow="0">
      <root>
        <mxCell id="0"/>
        <mxCell id="1" parent="0"/>

        <!-- Nodes -->
        <mxCell id="2" value="User" style="shape=ellipse;whiteSpace=wrap;html=1;fillColor=#dae8fc;strokeColor=#6c8ebf;" vertex="1" parent="1">
          <mxGeometry x="80" y="220" width="120" height="60" as="geometry"/>
        </mxCell>

        <mxCell id="3" value="Frontend" style="rounded=1;whiteSpace=wrap;html=1;fillColor=#e1d5e7;strokeColor=#9673a6;" vertex="1" parent="1">
          <mxGeometry x="260" y="210" width="140" height="60" as="geometry"/>
        </mxCell>

        <mxCell id="4" value="API Gateway" style="rounded=1;whiteSpace=wrap;html=1;fillColor=#dae8fc;strokeColor=#6c8ebf;" vertex="1" parent="1">
          <mxGeometry x="440" y="210" width="160" height="60" as="geometry"/>
        </mxCell>

        <mxCell id="5" value="Microservice A" style="rounded=1;whiteSpace=wrap;html=1;fillColor=#d5e8d4;strokeColor=#82b366;" vertex="1" parent="1">
          <mxGeometry x="660" y="140" width="160" height="60" as="geometry"/>
        </mxCell>

        <mxCell id="6" value="Microservice B" style="rounded=1;whiteSpace=wrap;html=1;fillColor=#ffe6cc;strokeColor=#d79b00;" vertex="1" parent="1">
          <mxGeometry x="660" y="280" width="160" height="60" as="geometry"/>
        </mxCell>

        <mxCell id="7" value="Database" style="shape=cylinder;whiteSpace=wrap;html=1;boundedLbl=1;fillColor=#fff2cc;strokeColor=#d6b656;" vertex="1" parent="1">
          <mxGeometry x="880" y="125" width="140" height="80" as="geometry"/>
        </mxCell>

        <mxCell id="8" value="Message Queue" style="rounded=1;whiteSpace=wrap;html=1;fillColor=#f8cecc;strokeColor=#b85450;" vertex="1" parent="1">
          <mxGeometry x="880" y="280" width="160" height="60" as="geometry"/>
        </mxCell>

        <mxCell id="9" value="Analytics Processor" style="rounded=1;whiteSpace=wrap;html=1;fillColor=#d5e8d4;strokeColor=#82b366;" vertex="1" parent="1">
          <mxGeometry x="1080" y="280" width="180" height="60" as="geometry"/>
        </mxCell>

        <mxCell id="10" value="Data Warehouse" style="shape=cylinder;whiteSpace=wrap;html=1;boundedLbl=1;fillColor=#fff2cc;strokeColor=#d6b656;" vertex="1" parent="1">
          <mxGeometry x="1300" y="265" width="160" height="80" as="geometry"/>
        </mxCell>

        <mxCell id="11" value="External Service" style="shape=cloud;whiteSpace=wrap;html=1;fillColor=#f5f5f5;strokeColor=#666666;" vertex="1" parent="1">
          <mxGeometry x="880" y="30" width="160" height="80" as="geometry"/>
        </mxCell>

        <!-- Edges -->
        <mxCell id="12" style="endArrow=block;html=1;strokeColor=#333333;" edge="1" parent="1" source="2" target="3">
          <mxGeometry relative="1" as="geometry"/>
        </mxCell>

        <mxCell id="13" style="endArrow=block;html=1;strokeColor=#333333;" edge="1" parent="1" source="3" target="4">
          <mxGeometry relative="1" as="geometry"/>
        </mxCell>

        <mxCell id="14" style="endArrow=block;html=1;strokeColor=#333333;" edge="1" parent="1" source="4" target="5">
          <mxGeometry relative="1" as="geometry"/>
        </mxCell>

        <mxCell id="15" style="endArrow=block;html=1;strokeColor=#333333;" edge="1" parent="1" source="4" target="6">
          <mxGeometry relative="1" as="geometry"/>
        </mxCell>

        <mxCell id="16" style="endArrow=block;html=1;strokeColor=#333333;" edge="1" parent="1" source="5" target="7">
          <mxGeometry relative="1" as="geometry"/>
        </mxCell>

        <mxCell id="17" style="endArrow=block;html=1;strokeColor=#333333;" edge="1" parent="1" source="6" target="8">
          <mxGeometry relative="1" as="geometry"/>
        </mxCell>

        <mxCell id="18" style="endArrow=block;html=1;strokeColor=#333333;" edge="1" parent="1" source="8" target="9">
          <mxGeometry relative="1" as="geometry"/>
        </mxCell>

        <mxCell id="19" style="endArrow=block;html=1;strokeColor=#333333;" edge="1" parent="1" source="9" target="10">
          <mxGeometry relative="1" as="geometry"/>
        </mxCell>

        <mxCell id="20" style="endArrow=block;html=1;strokeColor=#333333;dashed=1;" edge="1" parent="1" source="5" target="11">
          <mxGeometry relative="1" as="geometry"/>
        </mxCell>
      </root>
    </mxGraphModel>
  </diagram>
</mxfile>

